HIERARCHY
ROOT Hips
{
  OFFSET -35.2597 29.1586 114.425
  CHANNELS 6 Xposition Yposition Zposition Zrotation Xrotation Yrotation
  JOINT LeftUpLeg
  {
    OFFSET 8.64259 1.95398 -2.38835
    CHANNELS 3 Zrotation Xrotation Yrotation
    JOINT LeftLeg
    {
      OFFSET 43.7702 0 0
      CHANNELS 3 Zrotation Xrotation Yrotation
      JOINT LeftFoot
      {
        OFFSET 40.6238 0 0
        CHANNELS 3 Zrotation Xrotation Yrotation
        JOINT LeftToeBase
        {
          OFFSET 12.7242 0 0
          CHANNELS 3 Zrotation Xrotation Yrotation
          End Site
          {
            OFFSET 0 0 0
          }
        }
      }
    }
  }
  JOINT RightUpLeg
  {
    OFFSET -8.2249 1.95398 -2.59336
    CHANNELS 3 Zrotation Xrotation Yrotation
    JOINT RightLeg
    {
      OFFSET 43.5653 0 0
      CHANNELS 3 Zrotation Xrotation Yrotation
      JOINT RightFoot
      {
        OFFSET 40.6238 0 0
        CHANNELS 3 Zrotation Xrotation Yrotation
        JOINT RightToeBase
        {
          OFFSET 12.7242 0 0
          CHANNELS 3 Zrotation Xrotation Yrotation
          End Site
          {
            OFFSET 0 0 0
          }
        }
      }
    }
  }
  JOINT Spine
  {
    OFFSET 0.165834 0.87714 6.61349
    CHANNELS 3 Zrotation Xrotation Yrotation
    JOINT Spine1
    {
      OFFSET 7.38963 1.71661e-005 0
      CHANNELS 3 Zrotation Xrotation Yrotation
      JOINT Spine2
      {
        OFFSET 11.9445 1.14441e-005 0
        CHANNELS 3 Zrotation Xrotation Yrotation
        JOINT Spine3
        {
          OFFSET 14.7254 4.19617e-005 0
          CHANNELS 3 Zrotation Xrotation Yrotation
          JOINT Spine4
          {
            OFFSET 10.9679 0 0
            CHANNELS 3 Zrotation Xrotation Yrotation
            JOINT RightShoulder
            {
              OFFSET 2.46616 -1.6653 3.69651
              CHANNELS 3 Zrotation Xrotation Yrotation
              JOINT RightArm
              {
                OFFSET 13.0012 0 0
                CHANNELS 3 Zrotation Xrotation Yrotation
                JOINT RightForeArm
                {
                  OFFSET 28.7848 1.62311e-005 0
                  CHANNELS 3 Zrotation Xrotation Yrotation
                  JOINT RightHand
                  {
                    OFFSET 26.5688 1.62095e-005 0
                    CHANNELS 3 Zrotation Xrotation Yrotation
                    End Site
                    {
                      OFFSET 0 0 0
                    }
                  }
                }
              }
            }
            JOINT LeftShoulder
            {
              OFFSET 2.38034 -1.29275 -3.7523
              CHANNELS 3 Zrotation Xrotation Yrotation
              JOINT LeftArm
              {
                OFFSET 16.3182 6.07031e-005 0
                CHANNELS 3 Zrotation Xrotation Yrotation
                JOINT LeftForeArm
                {
                  OFFSET 27.0901 0 0
                  CHANNELS 3 Zrotation Xrotation Yrotation
                  JOINT LeftHand
                  {
                    OFFSET 24.5451 1.51738e-005 0
                    CHANNELS 3 Zrotation Xrotation Yrotation
                    End Site
                    {
                      OFFSET 0 0 0
                    }
                  }
                }
              }
            }
            JOINT Neck
            {
              OFFSET 5.0226 -0.0266342 0
              CHANNELS 3 Zrotation Xrotation Yrotation
              JOINT Head
              {
                OFFSET 6.69364 2.86102e-005 0
                CHANNELS 3 Zrotation Xrotation Yrotation
                End Site
                {
                  OFFSET 0 0 0
                }
              }
            }
          }
        }
      }
    }
  }
}
MOTION
Frames:	17
Frame Time:	0.0416667
42.8181 98.8155 -52.5274 99.5014 27.7302 76.949 -175.463 26.4134 83.1391 -22.5917 -1.5095 -2.539 76.8984 13.4656 0.198602 20.2429 -7.93168 5.8161 170.585 -8.97394 85.9811 -26.0354 -5.94382 -0.768676 74.4551 -8.6802 -2.72253 28.7703 -0.599978 2.01069 2.3342 8.36854 -89.4676 10.1293 4.894 0.640993 -1.53251 4.91746 0.424452 -24.131 4.47467 2.08499 -4.11832 4.47467 2.08499 91.6694 -24.5915 -105.418 42.6941 -1.42613 -37.5885 -5.80247 -48.5794 -5.76978 -26.7417 4.19923 -23.1487 -84.921 -49.4433 86.2879 -21.5931 -15.7324 32.3907 2.36769 5.06918 -3.41058 -4.49529 0.0215837 -14.5641 -7.06403 4.75157 19.4309 -5.57042 3.27499 -1.00125 
54.4472 93.1347 -64.2177 97.657 27.0964 80.6376 -174.945 28.2924 84.6831 -20.2831 -2.1831 -3.03876 69.7871 6.38646 -4.46015 20.623 -9.69225 8.91253 167.724 -20.6395 83.7598 -22.9198 -6.89238 -1.0362 81.1743 -13.5168 -4.23587 41.4758 -5.26384 0.078478 2.26117 8.03214 -89.8552 10.8135 4.56931 -0.126588 -0.849559 4.55928 -0.327993 -23.4454 4.39573 1.25526 -3.43279 4.39574 1.25526 90.2138 -26.005 -107.922 44.9411 -1.87011 -33.5887 -6.0899 -51.7868 -5.97811 -30.8942 3.72996 -19.0973 -84.4706 -60.714 88.2003 -10.7509 -16.7745 26.1651 2.46026 9.0415 -3.50904 3.95269 0.362984 1.29513 -4.59981 6.43032 21.4653 -7.48366 4.20743 0.829372 
68.2978 91.948 -76.1106 96.5655 30.8677 76.9333 -170.879 31.2639 78.7324 -37.3507 8.39229 -7.05145 63.2653 0.981252 -0.664264 8.21223 -12.4934 1.65108 166.227 -17.0858 77.958 -39.6253 -7.08821 -3.92775 61.4963 -0.310379 -1.68376 49.3359 -8.67425 3.96101 1.84629 7.60462 -88.9135 11.6352 4.1817 1.73079 -0.0299758 4.25384 1.54479 -22.5958 3.46825 2.90835 -2.58317 3.46826 2.90836 89.5171 -30.347 -107.578 50.8334 0.340247 -16.3089 -5.5888 -45.9797 -5.62917 -24.3768 2.66603 -17.8445 -84.8373 -60.4442 87.6919 -15.6494 -16.6387 8.56271 2.12653 -7.58623 -3.14933 13.3111 1.62794 8.05929 -1.54078 6.54791 15.0005 -11.0227 4.74019 -1.36643 
79.4975 91.8171 -85.7374 101.027 35.0265 72.7011 -170.7 22.5856 75.2021 -48.1094 12.7908 -6.50222 76.432 11.4184 2.37635 8.32781 -14.1489 3.85868 173.897 2.31782 77.7326 -82.6425 -22.6105 -6.67137 55.4493 3.04915 0.16391 18.4572 1.65871 7.05605 1.04215 7.88709 -88.5765 11.0605 2.73483 2.57261 -0.609891 2.84536 2.44977 -23.137 1.83566 3.27516 -3.12437 1.83569 3.27517 89.5597 -31.8614 -106.916 48.758 6.70205 0.176931 -5.75927 -48.0994 -5.74492 -14.3987 1.75484 -19.8293 -85.6969 -59.9544 86.4783 -19.163 -15.7339 -13.7603 2.35675 5.06192 -3.42153 -0.950429 -0.343131 -10.1528 0.351082 4.26161 5.16612 -8.89574 3.77351 -4.48359 
88.3471 97.9834 -94.2841 101.547 33.2582 78.847 -171.582 8.10073 81.7717 -36.5811 14.1223 -5.68822 71.5859 8.42753 2.36102 15.419 -10.0093 4.2695 -177.632 25.1058 88.294 -91.9769 -5.30081 -5.51897 63.295 -2.37588 -3.88663 19.1784 1.63287 6.46049 0.541858 7.99047 -89.3141 10.9029 1.396 1.21591 -0.7679 1.44814 1.15329 -23.3021 0.966081 1.57918 -3.28943 0.966079 1.57918 89.2388 -33.0409 -107.084 45.51 9.84741 7.83877 -5.18054 -40.1514 -5.35594 -23.1759 -0.781475 -2.00274 -85.6594 -59.1407 86.435 -20.3871 -14.5064 -37.0957 2.87621 23.9008 -3.9423 7.77353 -1.18365 -16.3395 -5.50885 3.99729 0.761455 -7.82074 4.45686 -8.60388 
97.2674 106.062 -103.176 106.068 40.2188 81.8413 -175.175 -2.38185 87.032 -27.5823 17.4469 0.271578 53.2269 -4.77668 -1.33663 11.6054 -12.2342 4.04487 -177.767 31.7787 91.5858 -77.8898 -1.19388 -4.82005 70.3018 -6.55599 -4.22075 19.0265 2.58688 4.16643 -0.384448 8.36303 -90.4942 10.1492 -0.991546 -0.900821 -1.52172 -1.03022 -0.856308 -24.056 -0.674996 -1.15715 -4.04338 -0.674995 -1.15714 87.7421 -33.025 -109.913 39.6468 12.9488 15.753 -4.58976 -29.9416 -5.09962 -23.3167 -0.302285 -3.85089 -86.1879 -52.6406 84.8332 -24.6338 -10.0351 -51.0479 2.57681 14.0177 -3.62652 8.85375 -2.18418 -25.5529 -14.4461 3.04142 -1.75338 -5.84369 3.33381 -6.1272 
106.883 108.285 -111.684 106.006 48.5666 84.0393 -172.76 -6.18183 91.1216 -21.215 16.8295 -0.47672 55.1912 -3.17543 -3.63985 15.4535 -11.4833 6.56454 -177.847 34.1492 92.9544 -62.8741 -8.09722 -4.47063 71.5037 -7.30849 -4.24648 19.6182 2.21902 4.50622 -0.7598 8.34149 -91.164 10.1673 -2.04478 -2.13828 -1.50361 -2.13689 -2.04625 -24.0309 -1.30786 -2.65372 -4.01825 -1.30786 -2.65371 87.4693 -33.7494 -110.126 35.0867 15.0407 24.1652 -4.89806 -35.5923 -5.2326 -16.0502 0.984977 -12.5529 -86.6557 -46.3305 83.14 -26.5877 -5.83067 -65.9449 2.46719 9.5217 -3.5119 6.42697 -2.63102 -36.524 -15.13 0.637222 -8.61103 -5.86785 0.876871 -4.15327 
116.915 104.428 -120.301 105.347 56.307 86.5537 -171.669 -8.35084 93.9708 -17.6992 6.19761 0.522498 66.2996 4.03908 -2.93522 18.1509 -12.6345 10.8559 179.285 32.4157 94.8396 -44.214 -7.91567 -1.4971 70.0457 -6.49596 -2.70811 21.9686 1.79277 3.08959 -1.25847 8.24394 -91.5952 10.3363 -3.23703 -2.88804 -1.33354 -3.36093 -2.74281 -23.8604 -2.22006 -3.72674 -3.84779 -2.22004 -3.72674 88.8384 -33.1154 -107.818 36.1792 15.2276 26.4774 -5.00082 -37.3344 -5.28363 -13.3173 0.909405 -13.4457 -86.9906 -42.5597 81.9223 -25.915 -4.44477 -77.7411 2.25614 -0.474803 -3.28973 10.3323 -4.23861 -40.381 -11.7966 -1.34519 -13.4249 -7.72592 -0.608389 -4.20874 
128.579 97.557 -130.385 105.574 59.3354 86.2848 -167.363 -20.8029 98.546 -16.2755 7.52467 1.4591 81.9703 15.6826 1.8017 32.3198 -4.88713 13.9795 177.313 27.003 96.6837 -25.7575 -9.96027 1.39856 70.5295 -7.61499 -2.44873 27.0702 0.573325 0.549011 -1.29877 8.064 -91.545 10.7021 -3.29857 -2.78066 -0.967366 -3.41769 -2.63281 -23.4975 -2.31098 -3.6429 -3.48489 -2.31099 -3.64291 90.3248 -36.7388 -103.859 33.6743 15.4062 25.3909 -4.7818 -33.5381 -5.18132 -11.0381 0.846642 -14.5929 -87.2259 -44.2006 81.8429 -27.4081 -0.792623 -82.4508 2.29501 1.50181 -3.33298 11.4795 -5.11561 -44.1934 -9.3676 -3.24674 -15.9659 -8.29673 -1.97843 -5.38322 
141.22 94.1751 -142.945 101.475 56.3364 89.0725 -165.243 -25.1686 100.528 -22.1938 7.36178 1.9405 70.8167 8.38179 4.43486 52.6085 6.76906 17.9649 176.213 28.705 98.5969 -31.9765 -11.3552 2.82951 62.0698 -0.581558 -1.70736 23.6241 1.06518 3.26942 -0.741967 7.26771 -91.7981 12.2963 -2.32672 -3.31502 0.623572 -2.47029 -3.20952 -21.8839 -1.22365 -3.86026 -1.87129 -1.22365 -3.86027 93.7578 -34.6902 -98.0502 36.1922 14.1647 19.5213 -4.23628 -22.6132 -4.97224 -8.55862 0.0956812 -7.42413 -87.7627 -51.3628 82.3162 -33.8455 3.16812 -64.5651 2.65055 16.8829 -3.7014 7.82918 -3.89212 -46.1085 -7.31511 -3.36748 -7.63819 -13.8402 -2.53538 -3.0136 
150.773 92.024 -153.275 105.358 50.6724 86.4653 -166.624 -7.44333 101.139 -64.4242 10.374 2.68824 56.3484 -2.78946 0.0572576 13.1766 -12.147 5.40904 174.336 27.1835 101.647 -51.4799 -15.9103 2.71612 69.7073 -6.59858 -5.54318 19.3099 2.22738 4.79771 -0.169299 7.66375 -91.9414 11.5106 -1.2446 -3.74076 -0.164948 -1.40791 -3.68247 -22.657 -0.0637925 -3.94158 -2.64438 -0.0637886 -3.94158 89.3045 -35.266 -106.168 34.824 12.7385 7.02358 -4.46374 -27.4182 -5.04941 -11.3865 0.735024 -13.1683 -87.855 -56.2006 82.987 -32.5173 -4.91029 -39.4137 3.2144 32.8738 -4.27528 2.28953 -1.13724 -29.666 -5.27596 0.855124 2.53315 -8.6075 0.435809 2.7375 
158.709 94.5664 -161.084 104.274 51.4582 84.1959 -174.173 20.8451 97.4717 -92.0862 13.2891 4.25493 61.148 0.748449 4.10174 4.86512 -13.4116 0.128592 174.589 18.8958 99.2885 -49.9897 -15.2123 1.89254 74.5016 -10.8072 -6.98135 20.756 2.0395 3.81749 0.464518 7.73086 -91.5454 11.4151 0.202644 -3.0929 -0.259446 0.0663658 -3.09882 -22.7686 1.12251 -2.88933 -2.75596 1.12251 -2.88933 91.1861 -31.3515 -103.939 39.2544 8.52451 -8.06786 -4.25095 -22.9299 -4.96852 -23.0229 2.03234 -15.7164 -88.1144 -59.3914 83.1301 -28.4357 -10.7676 -18.5161 2.73258 19.6674 -3.78724 13.3777 -0.0961318 -3.80689 -6.51699 1.56475 8.52469 -8.25275 0.520187 5.43628 
166.742 102.654 -169.818 105.272 47.8317 75.3305 -173.865 31.0483 81.4695 -78.9683 6.99959 2.03848 69.0757 6.09117 5.64782 4.85153 -16.1516 3.44452 176.618 2.61536 93.0866 -35.7142 -18.7437 -3.29896 65.2502 -3.63428 -5.30689 20.9625 1.23668 5.70801 1.39224 8.122 -90.1515 10.6613 2.70356 -0.538344 -1.00695 2.67718 -0.656883 -23.5656 2.74036 0.299672 -3.55292 2.74036 0.29967 91.1983 -30.2259 -104.28 43.2059 4.90163 -15.3506 -3.84872 -13.848 -4.90512 -31.3321 2.23449 -13.2322 -87.0532 -56.6706 84.1766 -20.2735 -15.2941 -3.37732 2.46124 9.18217 -3.50776 13.6898 0.550981 -0.154592 -13.598 0.154136 8.44511 -7.48859 -0.26065 3.96167 
174.845 107.59 -178.555 99.5784 38.9313 74.5377 -172.496 34.1296 77.0995 -58.2335 11.5288 -2.44184 76.7311 11.4308 2.9569 8.27795 -15.7044 5.7429 177.134 0.390575 87.5395 -31.4162 -26.5598 -6.61206 59.5947 0.071096 -2.5932 20.9391 1.29896 5.55872 2.19345 8.26436 -88.9519 10.3147 4.84954 1.66121 -1.348 4.91795 1.44572 -23.9308 4.12599 3.04357 -3.91812 4.126 3.04357 90.3996 -25.833 -107.659 47.6642 1.12211 -19.3559 -4.31871 -24.4009 -5.00128 -29.9173 2.67858 -15.4415 -87.3848 -52.8269 83.1169 -10.8158 -17.4249 14.0191 2.52287 11.8497 -3.56974 4.58 -0.583227 -13.4271 -13.6065 2.22912 8.87515 -8.1144 1.73468 5.22508 
182.765 106.493 -187.299 97.5186 34.5466 74.5611 -172.161 31.7932 75.3826 -39.3689 5.42957 -6.05659 75.9897 10.616 0.85482 16.0399 -11.0517 6.49631 173.467 -1.86534 86.2327 -19.6697 -11.4791 -2.44847 62.7815 -1.78062 -0.247589 18.0661 3.72524 2.33414 2.41584 8.33821 -88.637 10.145 5.43529 2.24854 -1.51607 5.52892 2.00658 -24.1032 4.5083 3.77991 -4.09052 4.50829 3.77991 89.486 -25.516 -109.685 46.9292 0.450484 -22.7816 -4.58347 -29.7981 -5.0938 -23.3451 2.37817 -17.0191 -86.3648 -50.245 84.2199 -9.78915 -16.8409 25.1252 2.59411 14.6302 -3.64406 2.42088 -0.406285 -11.9035 -13.4199 3.16209 13.4057 -7.86315 2.68361 3.57099 
190.84 100.781 -196.929 95.8784 29.8034 75.8136 -175.693 27.6472 76.0543 -19.5809 -3.74365 -4.90727 75.813 11.9909 0.0214162 19.9794 -10.5921 9.64262 171.798 -4.80638 84.0487 -26.1506 -10.2497 -3.15877 75.9238 -11.1781 -6.24399 28.3355 -0.581138 2.47395 2.64692 8.30642 -88.8626 10.2293 5.79357 1.76544 -1.42943 5.86565 1.50794 -24.0378 4.9948 3.42826 -4.0251 4.99478 3.42824 88.4814 -28.0722 -110.594 45.2275 0.70772 -25.3795 -4.67436 -31.5402 -5.13152 -24.9637 1.91221 -14.1481 -85.6413 -54.476 85.8477 -6.23897 -16.8556 28.825 2.69125 18.0976 -3.74639 -0.993261 -0.100283 -6.78122 -14.821 3.26849 19.6312 -4.51225 3.06358 1.71121 
201.72 97.8291 -208.157 96.7059 28.1504 78.9777 -178.595 21.3623 80.1252 -11.0655 -2.92606 -2.35258 73.0559 11.1256 -1.02126 14.4774 -13.463 8.40442 167.857 -17.13 82.0227 -22.03 -12.4074 -2.4098 75.0316 -9.68894 -4.37269 41.613 -5.65883 3.50104 2.5774 8.01287 -89.3817 10.8345 5.41673 0.721189 -0.82533 5.44322 0.481379 -23.4374 4.94907 2.31958 -3.42475 4.94907 2.31958 87.9958 -28.477 -111.389 49.1115 0.461854 -18.9094 -4.93693 -36.2415 -5.24306 -25.303 1.72781 -13.2666 -83.5721 -61.2867 89.4791 -5.57644 -17.4416 23.0125 2.40802 7.58931 -3.43639 3.54967 0.15785 0.0294404 -14.8035 4.35225 20.2707 -7.19522 4.07411 1.88589 
